<svg width="470" height="72" viewBox="0 0 470 72" fill="none" xmlns="http://www.w3.org/2000/svg">
<g clip-path="url(#clip0_1_8)">
<path d="M418.356 36C418.356 39.4186 418.79 42.5592 419.665 45.4218C420.503 48.316 421.718 50.8183 423.305 52.9289C424.923 55.0142 426.888 56.6446 429.186 57.8262C431.49 59.0079 434.103 59.5956 437.031 59.5956C439.959 59.5956 442.572 59.0079 444.877 57.8262C447.181 56.6446 449.127 55.0142 450.714 52.9289C452.332 50.812 453.56 48.3286 454.403 45.466C455.241 42.5719 455.663 39.4186 455.663 36C455.663 32.5814 455.241 29.4408 454.403 26.5782C453.566 23.684 452.332 21.2006 450.714 19.1153C449.127 16.9984 447.181 15.3555 444.877 14.1738C442.572 12.9921 439.959 12.4044 437.031 12.4044C434.103 12.4044 431.49 12.9921 429.186 14.1738C426.881 15.3555 424.923 17.0047 423.305 19.1153C421.718 21.2006 420.49 23.684 419.615 26.5782C418.778 29.4408 418.356 32.575 418.356 36ZM422.555 69.2449C418.412 67.4123 414.974 64.891 412.235 61.6935C409.496 58.4581 407.444 54.654 406.071 50.2686C404.698 45.8515 404.018 41.0995 404.018 36C404.018 30.9005 404.705 26.1169 406.071 21.7314C407.444 17.346 409.496 13.5545 412.235 10.3507C414.974 7.11532 418.412 4.58136 422.555 2.74882C426.699 0.916272 431.522 0 437.031 0C442.106 0 446.684 0.916272 450.758 2.74882C454.838 4.58136 458.288 7.11532 461.122 10.3507C463.987 13.5545 466.178 17.346 467.708 21.7314C469.232 26.1169 469.994 30.8689 469.994 36C469.994 41.1311 469.232 45.8578 467.708 50.2686C466.184 54.654 463.987 58.4581 461.122 61.6935C458.288 64.8973 454.832 67.4123 450.758 69.2449C446.678 71.0774 442.106 71.9937 437.031 71.9937C431.522 71.9937 426.699 71.0774 422.555 69.2449Z" fill="white"/>
<path d="M342.432 1.72513H398.654V13.5229H377.686V70.2686H363.355V13.5229H342.432V1.72513Z" fill="white"/>
<path d="M285.372 36C285.372 39.4186 285.807 42.5592 286.682 45.4218C287.52 48.316 288.735 50.8183 290.322 52.9289C291.94 55.0142 293.904 56.6446 296.203 57.8262C298.507 59.0079 301.12 59.5956 304.048 59.5956C306.976 59.5956 309.589 59.0079 311.894 57.8262C314.198 56.6446 316.144 55.0142 317.73 52.9289C319.349 50.812 320.577 48.3286 321.42 45.466C322.258 42.5719 322.68 39.4186 322.68 36C322.68 32.5814 322.258 29.4408 321.42 26.5782C320.583 23.684 319.349 21.2006 317.73 19.1153C316.144 16.9984 314.198 15.3555 311.894 14.1738C309.589 12.9921 306.976 12.4044 304.048 12.4044C301.12 12.4044 298.507 12.9921 296.203 14.1738C293.898 15.3555 291.94 17.0047 290.322 19.1153C288.735 21.2006 287.507 23.684 286.632 26.5782C285.794 29.4408 285.372 32.575 285.372 36ZM289.572 69.2449C285.429 67.4123 281.991 64.891 279.252 61.6935C276.513 58.4581 274.461 54.654 273.088 50.2686C271.715 45.8515 271.035 41.0995 271.035 36C271.035 30.9005 271.722 26.1169 273.088 21.7314C274.461 17.346 276.513 13.5545 279.252 10.3507C281.991 7.11532 285.429 4.58136 289.572 2.74882C293.715 0.916272 298.539 0 304.048 0C309.123 0 313.701 0.916272 317.775 2.74882C321.855 4.58136 325.305 7.11532 328.139 10.3507C331.004 13.5545 333.195 17.346 334.725 21.7314C336.249 26.1169 337.01 30.8689 337.01 36C337.01 41.1311 336.249 45.8578 334.725 50.2686C333.201 54.654 331.004 58.4581 328.139 61.6935C325.305 64.8973 321.848 67.4123 317.775 69.2449C313.694 71.0774 309.123 71.9937 304.048 71.9937C298.539 71.9937 293.715 71.0774 289.572 69.2449Z" fill="white"/>
<path d="M233.823 19.0711V52.7836C235.693 52.7836 237.588 52.4739 239.521 51.8484C241.479 51.1975 243.242 50.1864 244.797 48.8152C246.384 47.4186 247.675 45.6114 248.676 43.406C249.702 41.2006 250.219 38.5277 250.219 35.3871C250.219 33.6177 249.967 31.7978 249.469 29.9337C249.004 28.0379 248.147 26.3128 246.9 24.7583C245.654 23.1722 243.973 21.8515 241.857 20.7962C239.773 19.7409 237.097 19.1659 233.823 19.0711ZM214.398 51.8989C216.331 52.5498 218.226 52.8784 220.096 52.8784V19.0711C216.828 19.1659 214.121 19.7409 211.973 20.7962C209.858 21.8515 208.177 23.1722 206.93 24.7583C205.715 26.3444 204.858 28.0822 204.361 29.9779C203.895 31.8736 203.675 33.7251 203.706 35.5261C203.706 38.6667 204.204 41.3397 205.198 43.545C206.225 45.7188 207.516 47.5071 209.077 48.91C210.664 50.2749 212.439 51.2733 214.398 51.8926V51.8989ZM220.096 9.13745V1.72513H233.823V9.13745C237.84 9.26383 241.372 9.77568 244.42 10.6793C247.467 11.5514 250.099 12.7014 252.309 14.1296C254.551 15.5261 256.421 17.1311 257.913 18.9321C259.405 20.7014 260.608 22.5719 261.508 24.5308C262.409 26.4897 263.051 28.4613 263.423 30.4518C263.794 32.4108 263.983 34.2623 263.983 36C263.983 39.7283 263.265 43.1975 261.836 46.4013C260.438 49.5735 258.429 52.3412 255.81 54.7046C253.197 57.0679 250.017 58.9637 246.283 60.3918C242.581 61.7883 238.425 62.5972 233.816 62.8183V70.2812H220.09V62.8183C215.481 62.6035 211.312 61.7946 207.579 60.3918C203.876 58.9637 200.715 57.0679 198.102 54.7046C195.489 52.3412 193.462 49.5735 192.032 46.4013C190.634 43.1975 189.929 39.7346 189.929 36C189.929 34.2623 190.118 32.4108 190.49 30.4518C190.861 28.4613 191.503 26.4897 192.404 24.5308C193.304 22.5719 194.507 20.7078 195.999 18.9321C197.491 17.1311 199.361 15.5261 201.603 14.1296C203.845 12.7014 206.477 11.5514 209.493 10.6793C212.546 9.77568 216.079 9.26383 220.09 9.13745H220.096Z" fill="white"/>
<path d="M132.801 1.72513H189.016V13.5229H168.055V70.2686H153.718V13.5229H132.801V1.72513Z" fill="#F81134"/>
<path d="M111.09 70.2686V23.8736H110.901L83.7694 70.2686H69.2054V1.72513H82.976V48.3981H83.1649L110.341 1.72513H124.861V70.2686H111.09Z" fill="#F81134"/>
<path d="M61.2655 70.2686H43.7044L30.6768 46.8626L16.8118 70.2686H0L22.2709 35.2038L1.21523 1.72513H18.3482L30.6768 23.8736L43.2888 1.72513H59.8613L38.8057 34.6414L61.2655 70.2686Z" fill="#F81134"/>
</g>
<defs>
<clipPath id="clip0_1_8">
<rect width="470" height="72" fill="white"/>
</clipPath>
</defs>
</svg>
